<?xml version="1.0" encoding="UTF-8" standalone="no"?>
<svg
   width="400"
   height="400"
   viewBox="0 0 124 124"
   fill="none"
   version="1.1"
   id="svg3"
   sodipodi:docname="threeCircleDiagramLabelled.svg"
   inkscape:version="1.4 (86a8ad7, 2024-10-11)"
   xmlns:inkscape="http://www.inkscape.org/namespaces/inkscape"
   xmlns:sodipodi="http://sodipodi.sourceforge.net/DTD/sodipodi-0.dtd"
   xmlns="http://www.w3.org/2000/svg"
   xmlns:svg="http://www.w3.org/2000/svg">
  <defs
     id="defs3" />
  <sodipodi:namedview
     id="namedview3"
     pagecolor="#ffffff"
     bordercolor="#000000"
     borderopacity="0.25"
     inkscape:showpageshadow="2"
     inkscape:pageopacity="0.0"
     inkscape:pagecheckerboard="0"
     inkscape:deskcolor="#d1d1d1"
     inkscape:zoom="1.8675"
     inkscape:cx="296.65328"
     inkscape:cy="197.8581"
     inkscape:window-width="1920"
     inkscape:window-height="986"
     inkscape:window-x="-11"
     inkscape:window-y="-11"
     inkscape:window-maximized="1"
     inkscape:current-layer="svg3" />
  <circle
     cx="42"
     cy="42"
     r="40"
     fill="none"
     stroke="black"
     stroke-width="2"
     id="circle1" />
  <circle
     cx="82"
     cy="42"
     r="40"
     fill="none"
     stroke="black"
     stroke-width="2"
     id="circle2" />
  <circle
     cx="62"
     cy="82"
     r="40"
     fill="none"
     stroke="black"
     stroke-width="2"
     id="circle3" />
  <path
     style="fill:none;stroke-width:0.535475"
     d="m 64.768054,239.07401 c -26.280251,-17.8892 -44.888478,-45.43655 -51.920227,-76.86196 -3.5987637,-16.08315 -3.5987637,-37.39049 0,-53.47363 11.647438,-52.053271 53.996275,-90.823949 106.761393,-97.740851 12.54902,-1.6450343 30.45816,-0.867233 42.60283,1.850258 9.58665,2.14511 21.31015,6.24076 28.57865,9.984069 l 2.03569,1.048386 -3.09478,2.116084 c -31.78267,21.731655 -53.04079,57.323398 -56.97177,95.385884 -0.34788,3.36842 -0.53143,10.99802 -0.41963,17.44271 l 0.19872,11.45539 -5.35916,3.50535 c -28.734715,18.79494 -49.706903,49.35454 -56.670485,82.57734 l -1.214147,5.7926 z"
     id="section_a"
     transform="scale(0.31)"
     inkscape:label="section_a" />
  <path
     style="fill:none;stroke-width:0.535475"
     d="m 329.41096,236.13431 c -4.20043,-20.19693 -14.0231,-40.21822 -27.86878,-56.80423 -8.04507,-9.63736 -20.54724,-20.59677 -30.50782,-26.74317 l -3.57503,-2.20605 0.19959,-11.50564 C 267.88105,126.0702 267.29508,118.681 265.27428,108.80429 258.52004,75.792846 238.96442,46.057529 211.31043,26.749508 l -4.12105,-2.877317 2.0278,-1.044341 c 7.26036,-3.73917 18.98835,-7.835861 28.57077,-9.980023 16.08315,-3.5987637 37.39049,-3.5987637 53.47363,0 36.64248,8.19912 67.31015,31.729087 84.60854,64.916435 6.48534,12.442292 11.34372,27.848808 13.10638,41.561968 1.10559,8.60128 1.10559,23.69673 0,32.29801 -4.00783,31.18014 -20.93666,61.55461 -45.2014,81.10241 -3.78281,3.04744 -12.47998,9.30816 -12.93059,9.30816 -0.11352,0 -0.75861,-2.65523 -1.43355,-5.9005 z"
     id="section_b"
     transform="scale(0.31)"
     inkscape:label="section_b" />
  <path
     style="fill:none;stroke-width:0.535475"
     d="M 183.93574,388.98837 C 160.40887,385.79309 137.73085,375.88178 119.94645,361.02221 93.906584,339.26486 77.910367,308.6059 74.927241,274.73665 c -0.574584,-6.5236 -0.491059,-20.03406 0.127682,-20.6528 0.1387,-0.1387 3.247843,1.0426 6.909206,2.62511 12.37827,5.35011 26.332151,9.13002 38.630561,10.46446 6.68972,0.72586 23.07137,0.72586 29.76109,0 15.00713,-1.62835 35.45278,-7.89606 47.01771,-14.4135 l 2.72824,-1.5375 2.34726,1.39973 c 3.83409,2.28638 14.73733,6.80946 22.01795,9.13388 7.76142,2.47793 17.603,4.59554 25.17728,5.41739 6.68972,0.72586 23.07137,0.72586 29.76109,0 12.29841,-1.33444 26.25229,-5.11435 38.63056,-10.46446 3.66136,-1.58251 6.76788,-2.76643 6.90337,-2.63095 0.62483,0.62484 0.7101,13.83609 0.13299,20.60587 -3.27437,38.40997 -23.78691,73.03306 -55.99592,94.51545 -11.56086,7.71072 -28.69268,14.99173 -42.05597,17.87376 -12.78002,2.75623 -30.9465,3.5638 -43.0846,1.91528 z"
     id="section_c"
     transform="scale(0.31)"
     inkscape:label="section_c" />
  <path
     style="fill:none;stroke-width:0.535475"
     d="m 139.35835,133.77356 c 0.28921,-14.64058 1.15817,-20.97556 4.46743,-32.56874 8.50325,-29.789105 28.92629,-56.903424 54.39329,-72.214411 l 1.9674,-1.182817 5.21241,3.534014 c 27.00696,18.310713 45.5885,45.598188 52.70376,77.396814 1.85576,8.29351 2.6738,16.73007 2.6738,27.57516 v 10.42205 l -3.30192,-1.66681 c -9.17123,-4.62962 -23.57172,-9.19341 -35.78777,-11.34183 -5.82155,-1.02382 -8.6465,-1.17792 -21.68675,-1.18301 -13.34537,-0.005 -15.7486,0.13023 -21.86513,1.23218 -12.57542,2.26559 -26.45548,6.67179 -35.67063,11.32358 l -3.36317,1.69772 z"
     id="intersection_ab"
     transform="scale(0.31)"
     inkscape:label="intersection_ab" />
  <path
     style="fill:none;stroke-width:0.535475"
     d="m 119.14324,259.93975 c -13.3562,-1.81168 -25.033332,-5.305 -37.884873,-11.33362 -3.833416,-1.79824 -5.220884,-2.71172 -5.220884,-3.43729 0,-2.46071 2.841673,-14.00853 5.090234,-20.6854 8.508007,-25.26365 24.969393,-47.16505 47.333453,-62.97579 2.76877,-1.95744 5.1059,-3.48721 5.19361,-3.3995 0.0877,0.0877 0.67624,2.56132 1.30782,5.49689 3.76983,17.52221 12.40155,36.48706 23.14529,50.85279 9.03555,12.08167 21.87693,24.29097 33.24256,31.60626 l 1.52447,0.9812 -2.05995,1.06084 c -10.76234,5.54239 -25.79312,10.0534 -39.47372,11.84677 -7.73979,1.0146 -24.67215,1.00768 -32.19801,-0.0131 z"
     id="intersection_ac"
     transform="scale(0.31)"
     inkscape:label="intersection_ac" />
  <path
     style="fill:none;stroke-width:0.535475"
     d="m 248.19277,259.93975 c -13.12617,-1.78048 -28.5927,-6.46982 -38.97559,-11.81713 l -2.0278,-1.04434 4.12105,-2.87732 c 27.14996,-18.95611 46.19504,-47.4251 53.56382,-80.06835 0.73016,-3.23458 1.39088,-5.94437 1.46826,-6.02175 0.0774,-0.0774 1.92895,1.08707 4.11462,2.58767 22.42671,15.39738 39.99705,38.51874 48.38062,63.66559 2.22395,6.67081 5.12477,18.44084 5.12477,20.79365 0,0.73958 -1.35679,1.63572 -5.22089,3.44836 -13.14429,6.16594 -24.53121,9.53694 -38.3139,11.34248 -7.77774,1.01889 -24.69237,1.01424 -32.23496,-0.009 z"
     id="intersection_bc"
     transform="scale(0.31)"
     inkscape:label="intersection_bc" />
  <path
     style="fill:none;stroke-width:0.535475"
     d="m 194.68987,239.64147 c -27.10053,-18.11915 -46.95485,-47.57745 -53.06323,-78.73116 -0.46196,-2.35609 -0.94967,-4.80367 -1.08379,-5.43905 -0.30128,-1.42726 1.83496,-2.76284 9.98014,-6.23957 11.03027,-4.70822 23.96527,-8.14483 35.7497,-9.49808 8.28045,-0.95088 27.08639,-0.4009 34.87858,1.02002 10.92839,1.99282 22.42744,5.63298 32.23744,10.20516 6.84953,3.19239 6.49201,2.58253 5.20619,8.88057 -6.60273,32.34062 -25.0631,60.32625 -52.1692,79.08767 -6.80708,4.71151 -5.84506,4.65294 -11.73583,0.71444 z"
     id="intersection_abc"
     transform="scale(0.31)"
     inkscape:label="intersection_abc" />
  <path
     style="fill:none;stroke-width:0.31"
     d="m 59.804006,7.3948035 -4.577735,3.5213345 -3.873469,3.580024 -3.521337,4.519047 -2.640998,4.753802 -2.464937,5.98627 -1.291156,5.516758 -0.410822,5.105935 -0.117378,3.521337 0.352135,2.640998 1.995424,-1.056399 -0.234757,-4.81249 0.645578,-5.634138 1.196222,-4.78427 2.676707,-6.432396 3.216197,-5.145917 3.15395,-3.610442 3.112449,-2.863454 2.489961,-2.033467 2.44846,-1.6184737 z"
     id="line_ab_left"
     inkscape:label="line_ab_left" />
  <path
     style="fill:none;stroke-width:0.31"
     d="m 61.975495,8.6272706 4.401668,2.8757574 4.46036,4.225602 3.462645,4.401668 2.875758,5.047247 1.878045,4.87118 1.232467,4.28429 0.586889,5.282003 v 4.577736 l -0.117378,1.232467 2.054112,1.232467 0.293443,-4.28429 -0.322787,-5.13528 L 82.105794,33.188581 81.137425,29.667247 80.022337,26.52739 78.349704,22.800644 76.090179,19.22062 73.537211,15.72863 70.661456,12.618117 68.167177,10.329249 65.55552,8.3631707 64.029607,7.3067701 Z"
     id="line_ab_right"
     inkscape:label="line_ab_right" />
  <path
     style="fill:none;stroke-width:0.31"
     d="m 21.496653,75.113787 1.410977,-5.643906 1.535476,-3.900938 2.199464,-4.481927 3.693441,-5.187416 3.402944,-3.693442 3.485944,-2.946451 4.066934,-2.655959 0.331997,2.240965 -4.398931,2.98795 -3.02945,2.904955 -2.946454,3.361444 -2.323961,3.11245 -1.618474,3.112449 -1.576975,3.195449 -1.203481,3.900938 -0.705488,2.57296 -0.331995,2.199462 z"
     id="line_ac_top"
     inkscape:label="line_ac_top" />
  <path
     style="fill:none;stroke-width:0.31"
     d="m 23.416878,76.236902 5.193969,2.3769 4.108224,1.203126 2.75838,0.586888 2.758377,0.352133 2.523623,0.205412 3.28658,-0.05869 2.993136,-0.234757 3.28658,-0.586889 3.198546,-0.85099 3.403955,-1.203123 3.022481,-1.408531 2.083455,1.173777 -2.699691,1.408535 -4.460358,1.731322 -4.196256,1.144433 -3.110512,0.586889 -3.139856,0.264102 -3.609371,0.05869 -2.758377,-0.146723 -3.257235,-0.440166 -2.75838,-0.557547 -2.376901,-0.733609 -2.611657,-0.968369 -2.024767,-0.792301 -1.848701,-0.792298 z"
     id="line_ac_bottom"
     inkscape:label="line_ac_bottom" />
  <path
     style="fill:none;stroke-width:0.31"
     d="m 63.970918,76.618382 4.548391,1.966075 4.225604,1.232471 4.401668,0.850987 4.401669,0.32279 4.783145,-0.293446 2.993137,-0.410821 4.313634,-1.027058 3.433303,-1.349842 1.790011,-0.762957 1.64329,-0.85099 0.32279,2.200836 -2.934449,1.320501 -4.488493,1.563258 -4.243305,1.016735 -2.697458,0.331995 -3.631192,0.269746 -3.900937,-0.103747 -2.34471,-0.259371 L 73.567938,82.147926 69.832999,81.162315 66.782798,80.083332 63.877844,78.80723 62,77.800871 Z"
     id="line_bc_bottom"
     inkscape:label="line_bc_bottom" />
  <path
     style="fill:none;stroke-width:0.31"
     d="m 82.770415,46.624499 3.485944,2.282462 3.631191,3.008702 2.884203,2.904954 2.884203,3.734939 1.929719,3.07095 2.655955,5.540162 1.43173,4.29518 0.78849,3.734939 -1.95047,1.141231 -0.2075,-1.908968 -0.871482,-3.319948 -1.369478,-3.797187 -0.76774,-1.825971 -1.556225,-2.987951 -1.784471,-2.884206 -2.157963,-2.780455 -2.282465,-2.469209 -2.821955,-2.635207 -2.199465,-1.742972 -2.012715,-1.141231 z"
     id="line_bc_top"
     inkscape:label="line_bc_top" />
  <path
     style="fill:none;stroke-width:0.31"
     d="m 43.138555,45.607764 3.091699,-1.452477 3.75569,-1.369478 4.315931,-1.058231 4.37818,-0.622489 4.419676,-0.145251 3.776442,0.290498 3.880186,0.684737 3.133198,0.829988 3.153949,1.058232 2.178718,0.933735 1.639221,0.829988 -0.331995,2.178714 -1.452474,-0.809236 -1.888222,-0.850736 -1.742972,-0.684741 -2.116463,-0.726237 -2.427712,-0.663989 -2.033467,-0.435745 -2.261714,-0.290495 -1.763723,-0.207495 -4.29518,-0.124499 -4.481927,0.435742 -4.149933,0.892235 -2.448461,0.746989 -2.718207,1.037483 -2.220214,1.078983 -1.058231,0.518742 z"
     id="path16"
     inkscape:label="line_ab_midsection" />
  <path
     style="fill:none;stroke-width:0.31"
     d="m 43.325302,47.641231 -1.90897,1.203482 1.535476,5.975904 1.991967,4.896921 3.236949,5.394912 3.61044,4.689425 3.734942,3.402945 4.398928,3.319945 2.157965,-1.12048 -3.817938,-2.44846 -3.029453,-2.53146 -2.697456,-2.987954 -2.946451,-3.817938 -2.406961,-4.066934 -1.576976,-3.568943 -1.037483,-3.07095 -0.788488,-3.02945 z"
     id="path17"
     inkscape:label="line_ac_midsection" />
  <path
     style="fill:none;stroke-width:0.31"
     d="m 80.508702,47.682731 -0.954484,5.02142 -1.784472,5.145916 -1.86747,3.527444 -2.57296,3.942434 -3.236946,3.734942 -3.693442,3.319945 -2.655956,1.95047 -1.784472,1.12048 1.991967,1.244982 3.402948,-2.448461 3.444444,-3.11245 2.299186,-2.405132 3.227891,-4.342979 2.582312,-4.519046 1.349845,-3.169202 1.144434,-3.257235 0.616233,-2.670346 0.440166,-1.936734 z"
     id="line_bc_midsection"
     inkscape:label="line_bc_midsection" />
</svg>
